2.8Hzlow3min_grf.mot
version=1
nRows=17
nColumns 19
inDegrees=yes
endheader
time	1_ground_force_vx	1_ground_force_vy	1_ground_force_vz	1_ground_force_px	1_ground_force_py	1_ground_force_pz	1_ground_torque_x	1_ground_torque_y	1_ground_torque_z	2_ground_force_vx	2_ground_force_vy	2_ground_force_vz	2_ground_force_px	2_ground_force_py	2_ground_force_pz	2_ground_torque_x	2_ground_torque_y	2_ground_torque_z
            1.253500	           17.353470	          609.440378	          -71.901966	           -0.278340	            0.006217	           -0.405805	            0.014999	            0.526753	           -0.062146	           17.892357	          724.597700	           82.214476	           -0.273358	            0.005529	           -0.706773	            0.023083	            0.934804	            0.106065
            1.254000	           17.305910	          613.227748	          -72.298319	           -0.278467	            0.006218	           -0.406036	            0.014533	            0.514960	           -0.060713	           17.880496	          727.911518	           82.460935	           -0.273454	            0.005529	           -0.706732	            0.022749	            0.926097	            0.104912
            1.254500	           16.983472	          617.915834	          -72.552569	           -0.278432	            0.006217	           -0.405853	            0.012747	            0.463790	           -0.054456	           17.823716	          730.673308	           82.564668	           -0.273348	            0.005529	           -0.706705	            0.018223	            0.747054	            0.084416
            1.255000	           16.706339	          622.424494	          -73.036981	           -0.278747	            0.006218	           -0.405998	            0.014140	            0.526802	           -0.061816	           17.625683	          733.619004	           82.575260	           -0.273252	            0.005529	           -0.706705	            0.016662	            0.693490	            0.078058
            1.255500	           16.750611	          626.031389	          -73.388483	           -0.278639	            0.006217	           -0.405898	            0.017429	            0.651401	           -0.076363	           17.423518	          737.670717	           82.261306	           -0.273169	            0.005530	           -0.706768	            0.014767	            0.625199	            0.069719
            1.256000	           16.978338	          631.079855	          -73.596685	           -0.278775	            0.006217	           -0.405860	            0.020741	            0.770928	           -0.089906	           17.224861	          740.800280	           82.366412	           -0.273243	            0.005529	           -0.706723	            0.013305	            0.572228	            0.063624
            1.256500	           17.022483	          632.884941	          -74.139340	           -0.278847	            0.006218	           -0.406208	            0.021403	            0.795756	           -0.093219	           16.937739	          742.456927	           82.278589	           -0.273027	            0.005529	           -0.706349	            0.013533	            0.593221	            0.065740
            1.257000	           16.609013	          636.490568	          -74.214561	           -0.279003	            0.006218	           -0.406214	            0.020527	            0.786633	           -0.091721	           17.020599	          745.405312	           81.819781	           -0.273112	            0.005529	           -0.706374	            0.012704	            0.556356	            0.061069
            1.257500	           16.562378	          640.816935	          -74.195896	           -0.278988	            0.006217	           -0.405865	            0.020927	            0.809675	           -0.093747	           16.780349	          747.061961	           81.778859	           -0.273065	            0.005528	           -0.706055	            0.011455	            0.509989	            0.055827
            1.258000	           16.516008	          644.962613	          -74.086300	           -0.279052	            0.006217	           -0.405967	            0.020382	            0.795916	           -0.091426	           16.812493	          751.114017	           81.605581	           -0.273026	            0.005529	           -0.706323	            0.008255	            0.368820	            0.040071
            1.258500	           16.468905	          647.487761	          -74.396359	           -0.279162	            0.006219	           -0.406297	            0.021033	            0.826910	           -0.095012	           16.477776	          752.955366	           81.330723	           -0.272994	            0.005529	           -0.706237	            0.006980	            0.318950	            0.034451
            1.259000	           16.284761	          651.093236	          -74.426297	           -0.279421	            0.006218	           -0.406236	            0.023521	            0.940427	           -0.107500	           16.374648	          755.534124	           81.058393	           -0.272875	            0.005529	           -0.706176	            0.006163	            0.284365	            0.030508
            1.259500	           16.604649	          654.158509	          -74.597377	           -0.279216	            0.006218	           -0.406107	            0.027444	            1.081194	           -0.123295	           16.229383	          756.823042	           80.922275	           -0.272947	            0.005527	           -0.705874	            0.004942	            0.230436	            0.024639
            1.260000	           16.649605	          657.764225	          -74.673736	           -0.279329	            0.006219	           -0.406253	            0.028168	            1.112802	           -0.126333	           15.753367	          758.848755	           80.460421	           -0.272921	            0.005527	           -0.705792	            0.006041	            0.291007	            0.030855
            1.260500	           16.006836	          661.189830	          -74.795028	           -0.279238	            0.006217	           -0.405939	            0.024222	            1.000534	           -0.113182	           15.509007	          761.611253	           80.141872	           -0.272803	            0.005528	           -0.705787	            0.006607	            0.324475	            0.034143
            1.261000	           16.281109	          662.993265	          -74.971405	           -0.279361	            0.006219	           -0.406300	            0.027312	            1.112199	           -0.125768	           15.498996	          764.373881	           80.057872	           -0.272681	            0.005528	           -0.705738	            0.002806	            0.138384	            0.014494
            1.261500	           15.685550	          666.416398	          -74.542540	           -0.279540	            0.006219	           -0.406287	            0.025018	            1.062908	           -0.118892	           15.209010	          766.768764	           79.503396	           -0.272697	            0.005528	           -0.705796	            0.002030	            0.102362	            0.010614
